<svg xmlns="http://www.w3.org/2000/svg" width="100.0" height="100.0" viewBox="0.0 0.0 100.0 100.0" fill="none">
<g clip-path="url(#clip0_4005_137)">
<path d="M50.3896 14.7334L50.9121 14.7402C60.0287 14.9712 68.2852 18.662 74.4189 24.5479V12.4033H75.1943V24.8066H87.5986V25.5811H75.4512C81.4506 31.832 85.1681 40.2877 85.2686 49.6123H100.001V50.3877H85.2686C85.1682 59.7123 81.4506 68.1679 75.4512 74.4189H87.5986V75.1934H75.1943V87.5967H74.4189V75.4512C68.1681 81.4496 59.7133 85.1651 50.3896 85.2656V100H49.6143V85.2656L49.0918 85.2598C39.9733 85.0289 31.7163 81.3361 25.582 75.4482V87.5967H24.8066V75.1934H12.4053V74.4189H24.5518C18.5525 68.1679 14.8357 59.7122 14.7354 50.3877H0V49.6123H14.7354C14.8358 40.2878 18.5524 31.832 24.5518 25.5811H12.4053V24.8066H24.8066V12.4033H25.582V24.5508C31.8331 18.5511 40.2893 14.8338 49.6143 14.7334V0H50.3896V14.7334ZM26.4404 75.1934C32.5192 80.8808 40.6562 84.3916 49.6143 84.4902V79.9746C49.3708 78.3449 49.0124 76.7512 48.5391 75.1934H26.4404ZM51.418 75.1934C50.9674 76.7241 50.6252 78.2896 50.3896 79.8896V84.4902C59.3474 84.3915 67.4838 80.8805 73.5625 75.1934H51.418ZM25.582 74.3643C25.6002 74.3825 25.6185 74.4007 25.6367 74.4189H48.292C47.967 73.4369 47.5975 72.4686 47.1797 71.5156C45.3573 67.2244 42.8589 63.4918 39.6846 60.3174C36.5102 57.143 32.7776 54.6446 28.4863 52.8223C27.5329 52.4043 26.5644 52.0341 25.582 51.709V74.3643ZM59.9346 60.709C56.9401 63.7977 54.5398 67.3993 52.7354 71.5156C52.3306 72.4687 51.9721 73.4368 51.6572 74.4189H73.6445L59.9346 60.709ZM74.4189 51.71C73.4375 52.0348 72.4701 52.4047 71.5176 52.8223C67.2985 54.6139 63.6199 57.0597 60.4805 60.1582L74.4189 74.0967V51.71ZM79.9775 50.3877C78.3473 50.6311 76.7527 50.9884 75.1943 51.4619V73.5615C80.8819 67.4827 84.3936 59.3459 84.4922 50.3877H79.9775ZM15.5107 50.3877C15.6093 59.3445 19.1206 67.48 24.8066 73.5586V51.4609C23.2492 50.9879 21.6556 50.631 20.0264 50.3877H15.5107ZM49.959 29.873C47.9935 34.443 45.2996 38.4534 41.877 41.876C38.4538 45.2991 34.4442 48.0203 29.875 50.043C34.4447 52.0084 38.4544 54.7016 41.877 58.124C45.2996 61.5466 47.9935 65.557 49.959 70.127C51.9818 65.5576 54.7027 61.5473 58.126 58.124C61.5486 54.7015 65.5591 52.0084 70.1289 50.043C65.5595 48.0202 61.5493 45.2993 58.126 41.876C54.7027 38.4527 51.9818 34.4425 49.959 29.873ZM24.8066 26.4404C19.1203 32.519 15.6094 40.6553 15.5107 49.6123H20.1113C21.7111 49.3769 23.2762 49.0344 24.8066 48.584V26.4404ZM75.1943 48.583C76.7254 49.0337 78.2911 49.3768 79.8916 49.6123H84.4922C84.3935 40.6539 80.8822 32.5163 75.1943 26.4375V48.583ZM25.582 48.3438C26.5643 48.0289 27.533 47.6714 28.4863 47.2666C32.6029 45.4621 36.2032 43.0601 39.292 40.0654L25.582 26.3555V48.3438ZM51.6572 25.5811C51.9721 26.5632 52.3306 27.5312 52.7354 28.4844C54.6165 32.7757 57.1439 36.5092 60.3184 39.6836C63.4928 42.858 67.2262 45.3855 71.5176 47.2666C72.4701 47.6711 73.4375 48.0291 74.4189 48.3438V25.6318C74.4019 25.6147 74.3843 25.5981 74.3672 25.5811H51.6572ZM39.8428 39.5205C42.9413 36.3811 45.388 32.7034 47.1797 28.4844C47.5975 27.5313 47.967 26.5631 48.292 25.5811H25.9033L39.8428 39.5205ZM49.6143 15.5088C40.6563 15.6074 32.5192 19.1193 26.4404 24.8066H48.5391C49.0125 23.2485 49.3709 21.6545 49.6143 20.0244V15.5088ZM50.3896 20.1104C50.6251 21.7104 50.9674 23.2759 51.418 24.8066H73.5625C67.4838 19.1196 59.3473 15.6075 50.3896 15.5088V20.1104Z" fill="url(#paint0_linear_4005_137)" />
</g>
<defs>
<linearGradient id="paint0_linear_4005_137" x1="31.1227" y1="64.6387" x2="76.3592" y2="26.4991" gradientUnits="userSpaceOnUse">
<stop stop-color="#346BF1" />
<stop offset="0.371606" stop-color="#3186FF" />
<stop offset="0.776981" stop-color="#4FA0FF" />
</linearGradient>
<clipPath id="clip0_4005_137">
<rect width="100" height="100" fill="white" />
</clipPath>
</defs>
</svg>