<svg xmlns="http://www.w3.org/2000/svg" width="100.0" height="100.0" viewBox="0.0 0.0 100.0 100.0" fill="none">
<path d="M48.1455 13.5176C46.9194 15.4784 45.9373 17.6075 45.2441 19.8633H25.0352C18.0269 19.8633 12.3457 25.5445 12.3457 32.5527V76.9668C12.3462 83.9746 18.0272 89.6562 25.0352 89.6562H69.4492C76.457 89.656 82.1381 83.9745 82.1387 76.9668V52.3682C84.4454 51.3232 86.5782 49.9622 88.4834 48.3418V76.9668C88.4829 87.4787 79.9612 96.0007 69.4492 96.001H25.0352C14.5231 96.0009 6.00053 87.4788 6 76.9668V32.5527C6 22.0403 14.5227 13.5176 25.0352 13.5176H48.1455ZM69.8359 4C70.3598 4 70.8156 4.35795 70.9434 4.86621C71.3352 6.42078 71.8464 7.93704 72.4824 9.41211C74.1392 13.261 76.4125 16.6303 79.2988 19.5166C82.1865 22.4028 85.5546 24.6753 89.4033 26.332C90.8798 26.968 92.3947 27.4793 93.9492 27.8711C94.4573 27.9989 94.8154 28.4548 94.8154 28.9785C94.8154 29.5023 94.4573 29.9581 93.9492 30.0859C92.3947 30.4778 90.8783 30.989 89.4033 31.625C85.5544 33.2818 82.1851 35.5551 79.2988 38.4414C76.4126 41.329 74.1392 44.6962 72.4824 48.5449C71.8464 50.0214 71.3352 51.5372 70.9434 53.0918C70.8154 53.5998 70.3596 53.957 69.8359 53.957C69.3123 53.9569 68.8564 53.5998 68.7285 53.0918C68.3367 51.5372 67.8255 50.02 67.1895 48.5449C65.5327 44.6964 63.2615 41.3275 60.374 38.4414C57.4863 35.5551 54.1184 33.2818 50.2695 31.625C48.793 30.989 47.2782 30.4778 45.7236 30.0859C45.2154 29.9582 44.8574 29.5024 44.8574 28.9785C44.8575 28.4547 45.2154 27.9989 45.7236 27.8711C47.2782 27.4793 48.7945 26.9681 50.2695 26.332C54.1184 24.6752 57.4878 22.4029 60.374 19.5166C63.2603 16.6304 65.5326 13.2609 67.1895 9.41211C67.8255 7.93567 68.3367 6.42072 68.7285 4.86621C68.8563 4.35805 69.3122 4.00015 69.8359 4Z" fill="url(#paint0_linear_4005_99)" />
<defs>
<linearGradient id="paint0_linear_4005_99" x1="33.6415" y1="63.4682" x2="74.9875" y2="29.8162" gradientUnits="userSpaceOnUse">
<stop stop-color="#346BF1" />
<stop offset="0.371606" stop-color="#3186FF" />
<stop offset="0.776981" stop-color="#4FA0FF" />
</linearGradient>
</defs>
</svg>