<svg xmlns="http://www.w3.org/2000/svg" width="100.0" height="100.0" viewBox="0.0 0.0 100.0 100.0" fill="none">
<g clip-path="url(#clip0_4005_167)">
<path d="M54.4443 14.4443H7.77734V92.2227H85.5557V45.5557H93.333V92.2227C93.3329 94.2966 92.5555 96.1115 91 97.667C89.4445 99.2224 87.6296 100 85.5557 100H7.77734C5.70345 99.9999 3.88845 99.2224 2.33301 97.667C0.777562 96.1115 0.000105401 94.2966 0 92.2227V14.4443C2.69135e-05 12.3704 0.777587 10.5555 2.33301 9C3.88845 7.44455 5.70345 6.6671 7.77734 6.66699H54.4443V14.4443ZM78.4258 79.6484H15.0371L30.2041 59.9443L42.2588 76.4072L59.3701 54.2412L78.4258 79.6484ZM75.5557 0C76.0683 5.05708e-05 76.5146 0.3503 76.6396 0.847656C77.0231 2.36885 77.5231 3.8525 78.1455 5.2959C79.7669 9.06246 81.9909 12.36 84.8154 15.1846C87.6414 18.0091 90.9375 20.2331 94.7041 21.8545C96.1489 22.4768 97.6311 22.9769 99.1523 23.3604C99.6497 23.4854 100 23.9317 100 24.4443C100 24.957 99.6497 25.4033 99.1523 25.5283C97.6312 25.9118 96.1475 26.4118 94.7041 27.0342C90.9376 28.6555 87.64 30.8796 84.8154 33.7041C81.9909 36.5301 79.7669 39.8262 78.1455 43.5928C77.5231 45.0376 77.0231 46.5198 76.6396 48.041C76.5146 48.5384 76.0683 48.8886 75.5557 48.8887C75.043 48.8887 74.5967 48.5384 74.4717 48.041C74.0882 46.5198 73.5882 45.0362 72.9658 43.5928C71.3444 39.8262 69.1219 36.5287 66.2959 33.7041C63.4699 30.8795 60.1738 28.6556 56.4072 27.0342C54.9625 26.4118 53.4802 25.9118 51.959 25.5283C51.4616 25.4033 51.1113 24.957 51.1113 24.4443C51.1114 23.9317 51.4616 23.4854 51.959 23.3604C53.4802 22.9769 54.9638 22.4769 56.4072 21.8545C60.1738 20.2331 63.4713 18.0091 66.2959 15.1846C69.1204 12.36 71.3445 9.06241 72.9658 5.2959C73.5882 3.85112 74.0882 2.36884 74.4717 0.847656C74.5967 0.350264 75.043 0 75.5557 0Z" fill="url(#paint0_linear_4005_167)" />
</g>
<defs>
<linearGradient id="paint0_linear_4005_167" x1="31.1224" y1="64.6387" x2="76.3588" y2="26.4996" gradientUnits="userSpaceOnUse">
<stop stop-color="#346BF1" />
<stop offset="0.371606" stop-color="#3186FF" />
<stop offset="0.776981" stop-color="#4FA0FF" />
</linearGradient>
<clipPath id="clip0_4005_167">
<rect width="100" height="100" fill="white" />
</clipPath>
</defs>
</svg>