<svg xmlns="http://www.w3.org/2000/svg" width="100.0" height="100.0" viewBox="0.0 0.0 100.0 100.0" fill="none">
<g clip-path="url(#clip0_4005_181)">
<path d="M45.4551 100.001H38.6367V18.1816H45.4551V100.001ZM64.6602 81.8184H57.8418V36.3643H64.6602V81.8184ZM26.0234 72.7275H19.2051V45.4551H26.0234V72.7275ZM80.6826 68.1826H73.8643V50H80.6826V68.1826ZM6.81836 62.5H0V55.6826H6.81836V62.5ZM80.0332 0C80.4418 0 80.7968 0.279392 80.8965 0.675781C81.2021 1.88812 81.6016 3.07036 82.0977 4.2207C83.3898 7.2223 85.1622 9.84964 87.4131 12.1006C89.6652 14.3516 92.2913 16.1249 95.293 17.417C96.4445 17.913 97.6264 18.3116 98.8389 18.6172C99.235 18.7169 99.5136 19.0721 99.5137 19.4805C99.5137 19.889 99.2352 20.245 98.8389 20.3447C97.6264 20.6503 96.4434 21.0489 95.293 21.5449C92.2914 22.837 89.664 24.6094 87.4131 26.8604C85.1622 29.1124 83.3898 31.7387 82.0977 34.7402C81.6016 35.8918 81.2021 37.0737 80.8965 38.2861C80.7967 38.6823 80.4417 38.9609 80.0332 38.9609C79.6248 38.9609 79.2697 38.6823 79.1699 38.2861C78.8643 37.0737 78.4658 35.8906 77.9697 34.7402C76.6776 31.7386 74.9054 29.1113 72.6533 26.8604C70.4013 24.6095 67.775 22.837 64.7734 21.5449C63.6221 21.049 62.4408 20.6503 61.2285 20.3447C60.8321 20.2451 60.5527 19.889 60.5527 19.4805C60.5528 19.072 60.8322 18.7168 61.2285 18.6172C62.4408 18.3116 63.6232 17.913 64.7734 17.417C67.7751 16.1249 70.4023 14.3516 72.6533 12.1006C74.9043 9.84959 76.6776 7.2224 77.9697 4.2207C78.4657 3.06932 78.8643 1.88804 79.1699 0.675781C79.2696 0.27943 79.6247 5.39033e-05 80.0332 0Z" fill="url(#paint0_linear_4005_181)" />
</g>
<defs>
<linearGradient id="paint0_linear_4005_181" x1="30.971" y1="64.6393" x2="76.1701" y2="26.7175" gradientUnits="userSpaceOnUse">
<stop stop-color="#346BF1" />
<stop offset="0.371606" stop-color="#3186FF" />
<stop offset="0.776981" stop-color="#4FA0FF" />
</linearGradient>
<clipPath id="clip0_4005_181">
<rect width="100" height="100" fill="white" />
</clipPath>
</defs>
</svg>