<svg xmlns="http://www.w3.org/2000/svg" width="100.0" height="100.0" viewBox="0.0 0.0 100.0 100.0" fill="none">
<g clip-path="url(#clip0_4005_153)">
<path d="M82.2412 56.5518L5 100.001V12.9824L82.2412 56.5518ZM12.2412 87.5693L67.5176 56.5518L12.2412 25.4141V87.5693ZM74.8271 0C75.261 3.11253e-05 75.6383 0.296803 75.7441 0.717773C76.0687 2.00528 76.4928 3.26075 77.0195 4.48242C78.3918 7.67038 80.2744 10.4609 82.665 12.8516C85.0569 15.2423 87.8462 17.1257 91.0342 18.498C92.2571 19.0248 93.5122 19.4479 94.7998 19.7725C95.2206 19.8783 95.5164 20.2557 95.5166 20.6895C95.5166 21.1233 95.2207 21.5015 94.7998 21.6074C93.5121 21.932 92.256 22.355 91.0342 22.8818C87.8463 24.2541 85.0557 26.1367 82.665 28.5273C80.2744 30.9191 78.3919 33.7087 77.0195 36.8965C76.4927 38.1194 76.0687 39.3745 75.7441 40.6621C75.6383 41.0831 75.261 41.3799 74.8271 41.3799C74.3932 41.3799 74.016 41.0831 73.9102 40.6621C73.5856 39.3745 73.1616 38.1183 72.6348 36.8965C71.2624 33.7086 69.3811 30.918 66.9893 28.5273C64.5974 26.1367 61.808 24.2541 58.6201 22.8818C57.3971 22.355 56.1422 21.932 54.8545 21.6074C54.4335 21.5016 54.1377 21.1234 54.1377 20.6895C54.1379 20.2557 54.4337 19.8783 54.8545 19.7725C56.1422 19.4479 57.3983 19.0249 58.6201 18.498C61.8081 17.1257 64.5985 15.2423 66.9893 12.8516C69.3799 10.4609 71.2625 7.67035 72.6348 4.48242C73.1615 3.25958 73.5856 2.00527 73.9102 0.717773C74.016 0.296781 74.3932 0 74.8271 0Z" fill="url(#paint0_linear_4005_153)" />
</g>
<defs>
<linearGradient id="paint0_linear_4005_153" x1="33.1709" y1="64.6393" x2="77.441" y2="30.8549" gradientUnits="userSpaceOnUse">
<stop stop-color="#346BF1" />
<stop offset="0.371606" stop-color="#3186FF" />
<stop offset="0.776981" stop-color="#4FA0FF" />
</linearGradient>
<clipPath id="clip0_4005_153">
<rect width="100" height="100" fill="white" />
</clipPath>
</defs>
</svg>